<?xml version="1.0" standalone="no"?><!DOCTYPE svg PUBLIC "-//W3C//DTD SVG 1.1//EN" "http://www.w3.org/Graphics/SVG/1.1/DTD/svg11.dtd"><svg t="1631030637408" class="icon" viewBox="0 0 1024 1024" version="1.1" xmlns="http://www.w3.org/2000/svg" p-id="4596" xmlns:xlink="http://www.w3.org/1999/xlink" width="200" height="200"><defs><style type="text/css"></style></defs><path d="M512 65.92A446.528 446.528 0 0 0 65.92 512 446.592 446.592 0 0 0 512 958.144 446.592 446.592 0 0 0 958.08 512 446.528 446.528 0 0 0 512 65.92z m0 854.72A409.088 409.088 0 0 1 103.424 512 409.152 409.152 0 0 1 512 103.36 409.216 409.216 0 0 1 920.64 512 409.088 409.088 0 0 1 512 920.64z" p-id="4597" fill="#8a8a8a"></path><path d="M338.304 368.064z m-52.288 0c0 32.512 23.424 58.816 52.288 58.816 28.864 0 52.224-26.368 52.224-58.816 0-32.448-23.424-58.816-52.224-58.816-28.864 0-52.288 26.368-52.288 58.816M690.304 368.064z m-52.288 0c0 32.512 23.424 58.816 52.288 58.816 28.8 0 52.224-26.368 52.224-58.816 0-32.448-23.424-58.816-52.224-58.816-28.864 0-52.288 26.368-52.288 58.816" p-id="4598" fill="#8a8a8a"></path><path d="M512 807.616c143.168 0 259.456-109.632 273.344-249.216H238.72c13.568 139.584 129.984 249.216 273.28 249.216z" p-id="4599" fill="#8a8a8a"></path></svg>